<svg xmlns="http://www.w3.org/2000/svg" viewBox="0 0 800 800" fill="none" role="presentation">
<!-- Godwin Austen Labs — "schematic: micro agents". Generated: npm run gen:diagrams -->
<g stroke="#46443e" fill="none">
  <g stroke-width="3.2" opacity="0.85"><rect x="70.3" y="156.6" width="126.1" height="86.8" rx="3"/><rect x="336.1" y="156.5" width="127.8" height="87.1" rx="3"/><rect x="604.1" y="156.8" width="125.1" height="86.4" rx="3"/><rect x="75" y="562.3" width="116.7" height="75.3" rx="3"/><rect x="330.3" y="561.7" width="139.4" height="76.6" rx="3"/><rect x="599.5" y="555.2" width="134.4" height="89.6" rx="3"/></g>
  <path d="M16.3 200L70.3 200M196.4 200L250.4 200M282.1 200L336.1 200M463.9 200L517.9 200M550.1 200L604.1 200M729.2 200L783.2 200M21 600L75 600M191.7 600L245.7 600M276.3 600L330.3 600M469.7 600L523.7 600M545.5 600L599.5 600M733.9 600L787.9 600" stroke-width="2.2" opacity="0.55"/>
</g>
<g fill="#46443e" stroke="none" opacity="0.85"><circle cx="16.3" cy="200" r="6"/><circle cx="250.4" cy="200" r="6"/><circle cx="138.4" cy="200" r="8.5"/><circle cx="282.1" cy="200" r="6"/><circle cx="517.9" cy="200" r="6"/><circle cx="403.2" cy="200" r="8.5"/><circle cx="550.1" cy="200" r="6"/><circle cx="783.2" cy="200" r="6"/><circle cx="680" cy="200" r="8.5"/><circle cx="21" cy="600" r="6"/><circle cx="245.7" cy="600" r="6"/><circle cx="118.8" cy="600" r="8.5"/><circle cx="276.3" cy="600" r="6"/><circle cx="523.7" cy="600" r="6"/><circle cx="412.9" cy="600" r="8.5"/><circle cx="545.5" cy="600" r="6"/><circle cx="787.9" cy="600" r="6"/><circle cx="660.4" cy="600" r="8.5"/></g>
</svg>
