<svg xmlns="http://www.w3.org/2000/svg" viewBox="0 0 800 800" fill="none" role="presentation">
<!-- Godwin Austen Labs — "schematic: agent swarms". Generated: npm run gen:diagrams -->
<g stroke="#46443e" fill="none">
  <path d="M192 192Q435 176.8 632 320M192 192Q400.5 295.6 632 320M632 320Q541.6 533.3 336 640M632 320Q455.2 453.4 336 640M336 640Q183.4 441.9 192 192M336 640Q304.3 403 192 192" stroke-width="3.4" opacity="0.7"/>
  <path d="M174.4 302.4L104.4 261M104.4 261L98.4 193M98.4 193L87.1 151.5M188.6 96.4L227.5 88.4M227.5 88.4L284.5 172.9M717.5 334.5L673.5 402M568.4 323.7L538.8 286.3M608.2 263L682.3 248.6M314.4 726.5L276.7 672.9M276.7 672.9L239 653.6M317 586.7L368.3 594.1M368.3 594.1L410.5 609.8M410.5 609.8L424.3 673.1" stroke-width="1.5" opacity="0.32"/>
  <path d="M192 192L260.7 195M192 192L252 248.3M192 192L174.4 302.4M192 192L104.4 261M192 192L98.4 193M192 192L87.1 151.5M192 192L188.6 96.4M192 192L227.5 88.4M192 192L284.5 172.9M632 320L717.5 334.5M632 320L673.5 402M632 320L629.8 398.6M632 320L554.5 375.4M632 320L568.4 323.7M632 320L538.8 286.3M632 320L608.2 263M632 320L682.3 248.6M632 320L698.2 300.1M336 640L424.3 673.1M336 640L374 702.5M336 640L314.4 726.5M336 640L276.7 672.9M336 640L239 653.6M336 640L281.7 621.2M336 640L317 586.7M336 640L368.3 594.1M336 640L410.5 609.8" stroke-width="2.2" opacity="0.55"/>
  <g fill="#46443e" stroke="none" opacity="0.85"><circle cx="260.7" cy="195" r="5"/><circle cx="252" cy="248.3" r="5"/><circle cx="174.4" cy="302.4" r="5"/><circle cx="104.4" cy="261" r="5"/><circle cx="98.4" cy="193" r="5"/><circle cx="87.1" cy="151.5" r="5"/><circle cx="188.6" cy="96.4" r="5"/><circle cx="227.5" cy="88.4" r="5"/><circle cx="284.5" cy="172.9" r="5"/><circle cx="717.5" cy="334.5" r="5"/><circle cx="673.5" cy="402" r="5"/><circle cx="629.8" cy="398.6" r="5"/><circle cx="554.5" cy="375.4" r="5"/><circle cx="568.4" cy="323.7" r="5"/><circle cx="538.8" cy="286.3" r="5"/><circle cx="608.2" cy="263" r="5"/><circle cx="682.3" cy="248.6" r="5"/><circle cx="698.2" cy="300.1" r="5"/><circle cx="424.3" cy="673.1" r="5"/><circle cx="374" cy="702.5" r="5"/><circle cx="314.4" cy="726.5" r="5"/><circle cx="276.7" cy="672.9" r="5"/><circle cx="239" cy="653.6" r="5"/><circle cx="281.7" cy="621.2" r="5"/><circle cx="317" cy="586.7" r="5"/><circle cx="368.3" cy="594.1" r="5"/><circle cx="410.5" cy="609.8" r="5"/></g>
  <g fill="#46443e" stroke="none" opacity="1"><circle cx="192" cy="192" r="9.5"/><circle cx="632" cy="320" r="9.5"/><circle cx="336" cy="640" r="9.5"/></g>
</g>
</svg>
