<svg xmlns="http://www.w3.org/2000/svg" width="2048" height="512" viewBox="0 0 2048 512" fill="none">
<mask id="mask0" mask-type="alpha" maskUnits="userSpaceOnUse" x="0" y="0" width="2048" height="512">
<rect width="2048" height="512" fill="#C4C4C4"/>
</mask>
<g mask="url(#mask0)">
<path d="M177.661 308.531L261.469 392.339C263.159 393.064 265.092 393.788 267.024 394.271L175.729 302.976C176.212 304.908 176.936 306.599 177.661 308.531Z" fill="#0BD0DB"/>
<path d="M170.656 284.138L285.862 399.344C287.311 399.585 288.76 399.827 290.21 400.068L169.932 279.79C170.173 281.239 170.415 282.688 170.656 284.138Z" fill="#0BD0DB"/>
<path d="M168.242 264.091L305.909 401.759C307.117 401.759 308.324 401.759 309.532 402L168 260.468C168 261.676 168 262.883 168.242 264.091Z" fill="#0BD0DB"/>
<path d="M168.241 246.943L323.057 401.759C324.023 401.759 325.23 401.517 326.197 401.517L168.483 243.562C168.241 244.769 168.241 245.735 168.241 246.943Z" fill="#0BD0DB"/>
<path d="M170.658 228.346C170.416 229.312 170.175 230.278 170.175 231.244L338.757 399.827C338.999 399.827 338.999 399.827 339.24 399.827L340.689 398.377L170.658 228.346Z" fill="#0BD0DB"/>
<path d="M349.383 389.682L174.038 214.337C173.797 215.303 173.555 216.028 173.313 216.994L347.692 391.373L349.383 389.682Z" fill="#0BD0DB"/>
<path d="M358.078 380.988L178.386 201.537C178.144 202.262 177.661 203.228 177.42 203.952L356.146 382.679L358.078 380.988Z" fill="#0BD0DB"/>
<path d="M366.772 372.293L183.94 189.461C183.457 190.186 183.215 190.91 182.732 191.876L364.84 373.984L366.772 372.293Z" fill="#0BD0DB"/>
<path d="M375.467 363.598L190.22 178.351C189.737 179.075 189.254 179.8 188.771 180.524L373.535 365.289L375.467 363.598Z" fill="#0BD0DB"/>
<path d="M384.162 354.904L197.224 168.207C196.741 168.932 196.257 169.656 195.774 170.139L382.229 356.594L384.162 354.904Z" fill="#0BD0DB"/>
<path d="M392.857 346.208L205.195 158.546C204.712 159.27 203.987 159.753 203.504 160.478L390.925 347.899L392.857 346.208Z" fill="#0BD0DB"/>
<path d="M401.552 337.514L213.648 149.851C213.165 150.334 212.44 151.059 211.957 151.542L399.62 339.204L401.552 337.514Z" fill="#0BD0DB"/>
<path d="M410.244 328.819L223.065 141.639C222.34 142.122 221.857 142.605 221.133 143.088L408.312 330.268L410.244 328.819Z" fill="#0BD0DB"/>
<path d="M418.941 320.124L233.211 134.393C232.486 134.876 231.762 135.359 231.037 135.842L417.009 321.814L418.941 320.124Z" fill="#0BD0DB"/>
<path d="M427.635 311.429L244.078 127.872C243.353 128.355 242.629 128.597 241.904 129.08L425.944 313.12L427.635 311.429Z" fill="#0BD0DB"/>
<path d="M436.331 302.735L255.673 122.076C254.948 122.318 253.982 122.801 253.258 123.042L434.641 304.425L436.331 302.735Z" fill="#0BD0DB"/>
<path d="M445.027 294.04L268.233 117.246C267.267 117.487 266.542 117.729 265.576 118.212L443.095 295.731L445.027 294.04Z" fill="#0BD0DB"/>
<path d="M453.719 285.345L281.756 113.622C280.79 113.864 279.824 114.106 278.857 114.347L451.787 287.277L453.719 285.345Z" fill="#0BD0DB"/>
<path d="M458.793 273.269L296.732 110.966C295.765 111.207 294.558 111.207 293.592 111.449L458.551 276.408C458.551 275.201 458.793 274.235 458.793 273.269Z" fill="#0BD0DB"/>
<path d="M460 256.845L313.155 110C311.947 110 310.981 110 309.773 110L460 260.227C460 259.019 460 258.053 460 256.845Z" fill="#0BD0DB"/>
<path d="M458.793 238.49L331.511 110.966C330.303 110.724 328.854 110.724 327.646 110.483L459.276 242.112C459.276 240.905 459.034 239.697 458.793 238.49Z" fill="#0BD0DB"/>
<path d="M454.688 216.753L353.248 115.314C351.558 114.831 350.109 114.589 348.418 114.106L455.654 221.342C455.412 219.893 454.929 218.202 454.688 216.753Z" fill="#0BD0DB"/>
<path d="M443.094 187.77L382.231 126.906C380.057 125.699 377.642 124.491 375.227 123.525L446.476 194.774C445.268 192.359 444.302 189.944 443.094 187.77Z" fill="#0BD0DB"/>
<g opacity="0.3">
<path d="M1856.85 438.653L1757.69 339.492L1757.2 339.005L1658.53 240.33L1623.53 205.332C1624.99 204.846 1626.93 204.36 1628.39 203.874L1661.44 236.928L1661.93 237.414L1662.41 237.9L1761.09 336.575L1761.57 337.061L1859.28 434.764L1859.76 435.25L1949.69 525.176C1947.74 525.176 1945.31 525.176 1943.37 525.176L1856.85 438.653Z" fill="white"/>
<path d="M1938.99 355.533L1839.83 256.371L1839.34 255.885L1764.97 182C1767.41 182 1769.35 182 1771.78 182L1843.23 253.455L1843.72 253.941L1942.39 352.616L2041.07 451.291L2041.55 451.777L2042.04 452.263L2046.9 457.124C2046.41 458.583 2045.44 460.041 2044.47 461.499L2038.64 455.666L2038.15 455.18L1938.99 355.533Z" fill="white"/>
<path d="M1905.94 388.586L1806.78 289.425L1806.29 288.939L1708.1 190.749L1707.62 190.263L1703.24 185.889C1705.19 185.402 1707.13 185.402 1709.08 185.402L1711.02 187.347L1711.51 187.833L1810.18 286.508L1810.67 286.994L1908.86 385.183L1909.34 385.669L2008.02 484.345L2008.5 484.831L2008.99 485.317L2019.2 495.525C2018.22 496.497 2016.77 497.469 2015.79 498.927L2005.59 488.72L1905.94 388.586Z" fill="white"/>
<path d="M2061 378.864L1988.09 305.952L1987.6 305.466L1889.41 207.276L1888.93 206.79L1880.18 198.041C1880.66 198.041 1881.63 198.527 1882.12 198.527C1884.55 199.499 1886.98 199.985 1889.41 200.957L1891.36 202.902L1891.84 203.388L1892.33 203.874L1991 302.549L1991.49 303.035L2060.02 371.573C2061 374.49 2061 376.434 2061 378.864Z" fill="white"/>
<path d="M2052.25 337.062L2005.1 289.911L2004.61 289.425L1934.13 218.943C1938.51 221.373 1943.37 223.318 1947.74 225.748L2008.01 286.023L2008.5 286.509L2047.39 325.396C2048.85 329.284 2050.79 333.173 2052.25 337.062Z" fill="white"/>
<path d="M1972.05 322.965L1872.89 223.804L1872.4 223.318L1837.4 188.32C1840.32 188.806 1842.75 189.292 1845.67 189.778L1876.29 220.401L1876.78 220.887L1974.96 319.076L1975.45 319.563L2061 405.114C2061 407.058 2060.51 409.002 2060.51 410.947L1972.05 322.965Z" fill="white"/>
<path d="M1839.35 454.207L1741.16 356.018L1740.67 355.532L1642 256.857L1641.51 256.371L1599.22 214.081C1600.68 213.595 1602.14 212.623 1604.09 212.137L1645.4 253.454L1645.89 253.94L1744.08 352.129L1744.56 352.616L1843.72 451.777L1844.21 452.263L1914.2 522.259C1911.29 521.773 1908.37 520.801 1905.45 520.315L1839.35 454.207Z" fill="white"/>
<path d="M1708.1 388.586L1608.94 289.911L1608.46 289.425L1554.99 235.955C1556.45 234.983 1557.9 234.497 1559.36 233.525L1612.35 286.508L1612.83 286.994L1711.02 385.183L1711.51 385.67L1794.14 468.304C1789.76 465.874 1785.39 463.929 1781.01 461.985L1708.1 388.586Z" fill="white"/>
<path d="M1888.93 405.113L1790.25 306.438L1789.77 305.952L1691.58 207.763L1691.09 207.276L1675.05 191.236C1677 190.75 1678.46 190.263 1680.4 190.263L1694.01 203.874L1694.5 204.36L1694.98 204.846L1793.66 303.521L1794.14 304.007L1892.82 402.197L1893.3 402.683L1991.98 501.358L1992.46 501.844L2000.73 510.107C1999.27 511.08 1997.81 511.566 1996.35 512.538L1988.57 504.76L1988.09 504.274L1888.93 405.113Z" fill="white"/>
<path d="M1872.4 421.64L1774.21 322.965L1773.73 322.479L1675.05 223.804L1674.57 223.318L1674.08 222.831L1647.83 196.583C1649.78 196.097 1651.23 195.611 1653.18 195.125L1677.48 219.429L1776.16 318.104L1776.64 318.59L1777.13 319.076L1875.8 417.751L1876.29 418.238L1974.48 516.427L1974.96 516.913L1977.39 519.343C1975.94 519.829 1973.99 520.315 1972.05 520.802L1971.56 520.315L1971.07 519.829L1872.4 421.64Z" fill="white"/>
<path d="M1955.03 339.005L1856.84 240.816L1856.36 240.33L1799.49 183.458C1801.92 183.458 1804.35 183.944 1806.78 183.944L1859.27 236.441L1859.76 236.928L1958.92 336.089L1959.41 336.575L2055.65 432.82C2055.16 434.278 2054.68 436.222 2054.19 437.681L1955.03 339.005Z" fill="white"/>
<path d="M1922.47 372.059L1823.79 273.384L1823.31 272.898L1732.9 182.486C1734.84 182.486 1736.79 182 1739.22 182L1826.22 269.495L1826.71 269.981L1925.38 368.657L1925.87 369.143L1926.36 369.629L2025.03 468.304L2025.52 468.79L2034.27 477.54C2033.29 478.998 2032.32 479.97 2031.35 481.428L2022.11 472.193L2021.63 471.707L2021.14 471.221L1922.47 372.059Z" fill="white"/>
<path d="M1559.36 339.491L1492.77 272.898C1494.23 271.926 1495.69 270.953 1496.66 270.467L1562.28 336.089L1653.66 427.473C1651.23 427.473 1648.8 426.987 1646.37 426.987L1559.36 339.491Z" fill="white"/>
<path d="M1510.27 389.073L1433.96 312.757C1435.41 311.785 1436.39 310.813 1437.84 309.841L1512.7 384.698L1513.19 385.184L1558.88 430.876C1556.93 431.362 1554.99 431.362 1553.04 431.848L1510.27 389.073Z" fill="white"/>
<path d="M1691.09 405.113L1592.42 306.438L1591.93 305.952L1533.6 247.622C1535.06 246.65 1536.52 246.164 1537.98 245.191L1595.82 303.036L1596.31 303.522L1694.98 402.197L1695.47 402.683L1737.27 444.486C1733.87 443.514 1730.95 442.542 1727.55 441.57L1691.09 405.113Z" fill="white"/>
<path d="M1724.15 372.06L1625.96 273.384H1625.47L1576.86 224.776C1578.32 224.29 1579.78 223.318 1581.24 222.832L1628.39 269.982L1628.87 270.468L1727.55 369.143L1728.03 369.629L1826.71 468.304L1862.19 503.789C1857.82 501.844 1853.44 499.9 1849.55 497.47L1823.79 471.707L1823.31 471.221L1822.82 470.735L1724.15 372.06Z" fill="white"/>
<path d="M1576.38 322.965L1513.19 259.774C1514.65 258.802 1516.1 258.316 1517.08 257.343L1578.81 319.076L1579.29 319.562L1579.78 320.048L1678.45 418.724L1678.94 419.21L1693.04 433.306C1690.12 432.82 1687.69 432.334 1684.77 431.848L1675.05 422.126L1674.57 421.64L1576.38 322.965Z" fill="white"/>
<path d="M1262.37 438.167L1253.62 429.418C1255.08 428.446 1256.54 427.96 1257.51 426.987L1265.77 434.765L1266.26 435.251L1354.73 524.204C1353.27 525.177 1351.81 525.663 1350.35 526.635L1262.37 438.167Z" fill="white"/>
<path d="M1246.33 455.18L1233.21 442.056C1234.66 441.084 1235.64 440.111 1237.09 439.625L1248.76 451.291L1249.25 451.777L1332.85 534.898C1332.37 535.384 1331.88 535.384 1330.91 535.87C1329.93 536.356 1328.96 536.356 1327.99 536.842L1246.33 455.18Z" fill="white"/>
<path d="M1212.79 487.748L1198.21 473.165C1199.18 471.707 1200.16 470.735 1201.13 469.276L1215.71 483.859L1281.82 549.966C1279.87 550.453 1277.93 550.453 1275.98 550.939L1212.79 487.748Z" fill="white"/>
<path d="M1379.52 351.158L1463.61 434.765L1464.09 435.251L1482.08 453.236C1480.62 453.722 1479.16 454.694 1477.22 455.18L1460.69 438.653L1460.2 438.167V437.681L1375.63 353.589C1377.09 352.616 1378.54 351.644 1379.52 351.158Z" fill="white"/>
<path d="M1340.63 377.893L1430.56 467.818L1431.04 468.304L1431.53 468.79L1437.85 475.11C1436.39 476.082 1434.93 476.568 1433.47 477.54L1427.64 471.707L1336.26 380.323C1337.71 379.351 1339.17 378.379 1340.63 377.893Z" fill="white"/>
<path d="M1300.28 403.169L1396.53 499.413C1395.07 500.386 1393.61 500.872 1392.64 501.844L1295.91 405.599C1297.37 405.113 1298.83 404.141 1300.28 403.169Z" fill="white"/>
<path d="M1360.07 364.283L1447.08 451.292L1458.74 462.958C1457.29 463.444 1455.83 464.416 1454.37 465.388L1444.16 455.18L1443.68 454.694V454.208L1356.18 366.713C1357.64 366.227 1359.1 365.255 1360.07 364.283Z" fill="white"/>
<path d="M1320.21 390.531L1414.03 484.345L1414.51 484.831L1416.94 487.262C1415.48 488.234 1414.03 488.72 1413.05 489.692L1411.11 487.748L1410.62 487.262L1316.32 393.447C1317.78 392.475 1319.24 391.503 1320.21 390.531Z" fill="white"/>
<path d="M1279.38 422.126L1275.01 417.751C1276.47 416.779 1277.93 416.293 1279.38 415.321L1281.81 417.751L1282.3 418.237L1376.11 512.052C1374.66 513.024 1373.2 513.51 1371.74 514.482L1279.38 422.126Z" fill="white"/>
<path d="M1526.31 372.059L1453.4 299.146C1454.86 298.174 1455.83 297.202 1457.29 296.23L1529.71 368.657L1530.2 369.143L1588.53 427.473C1586.58 427.473 1584.64 427.959 1582.7 427.959L1526.31 372.059Z" fill="white"/>
<path d="M1493.26 405.113L1414.51 326.367C1415.97 325.395 1416.94 324.423 1418.4 323.451L1496.66 401.71L1497.15 402.197L1531.66 436.709C1529.71 437.195 1528.25 437.681 1526.31 438.167L1493.26 405.113Z" fill="white"/>
<path d="M1476.73 421.64L1395.07 339.977C1396.53 339.005 1397.5 338.033 1398.96 337.061L1480.13 418.237L1480.62 418.723L1505.9 444C1504.44 444.486 1502.49 444.972 1501.04 445.458L1476.73 421.64Z" fill="white"/>
<path d="M1542.84 355.533L1472.84 286.023C1474.3 285.05 1475.27 284.078 1476.73 283.592L1545.75 352.13L1546.24 352.616L1546.73 353.102L1620.12 426.501C1618.18 426.501 1615.75 426.501 1613.8 426.501L1542.84 355.533Z" fill="white"/>
<path d="M1229.32 470.734L1214.73 456.152C1215.71 455.18 1217.16 454.208 1218.14 453.235L1232.72 467.818L1233.21 468.304L1308.55 544.133C1306.6 544.619 1305.15 545.105 1303.2 545.591L1229.32 470.734Z" fill="white"/>
<path d="M1199.18 500.386L1199.67 500.872L1250.22 551.425C1247.79 551.425 1245.36 550.939 1242.93 550.453L1196.75 504.275L1188 496.011C1188.49 494.553 1188.97 492.609 1189.46 490.664L1199.18 500.386Z" fill="white"/>
</g>
</g>
</svg>